<svg width="80" height="731" viewBox="0 0 80 731" fill="none" xmlns="http://www.w3.org/2000/svg">
<mask id="path-1-outside-1_1_3006" maskUnits="userSpaceOnUse" x="-0.118196" y="-0.651372" width="81" height="731" fill="black">
<rect fill="white" x="-0.118196" y="-0.651372" width="81" height="731"/>
<path d="M5.15456 668.197L77.8818 668.197L77.8818 681.478L32.1077 713.119L32.1077 713.651L77.8818 713.651L77.8818 729.028L5.15456 729.028L5.15456 715.533L50.8932 684.141L50.8932 683.502L5.15456 683.502L5.15456 668.197ZM78.9472 630.919C78.9472 636.529 77.8108 641.359 75.5381 645.407C73.2417 649.432 69.9983 652.533 65.808 654.711C61.594 656.889 56.6105 657.978 50.8577 657.978C45.2469 657.978 40.3226 656.889 36.085 654.711C31.8473 652.533 28.5447 649.467 26.1773 645.514C23.8099 641.536 22.6262 636.873 22.6262 631.522C22.6261 627.924 23.2062 624.574 24.3662 621.473C25.5026 618.348 27.219 615.625 29.5154 613.305C31.8118 610.961 34.7 609.138 38.1801 607.836C41.6366 606.534 45.6849 605.883 50.325 605.883L54.4798 605.883L54.4798 651.941L45.1048 651.941L45.1048 620.123C42.9268 620.123 40.9974 620.597 39.3165 621.544C37.6356 622.491 36.3217 623.804 35.3747 625.485C34.4041 627.143 33.9188 629.072 33.9188 631.274C33.9188 633.57 34.4514 635.606 35.5168 637.382C36.5584 639.134 37.9671 640.507 39.7426 641.501C41.4945 642.495 43.4476 643.004 45.602 643.028L54.5154 643.028C57.2142 643.028 59.5461 642.531 61.5111 641.536C63.4761 640.518 64.9912 639.086 66.0565 637.24C67.1219 635.393 67.6546 633.203 67.6546 630.67C67.6546 628.989 67.4178 627.45 66.9443 626.054C66.4708 624.657 65.7606 623.461 64.8136 622.467C63.8667 621.473 62.7066 620.715 61.3335 620.194L62.2568 606.203C65.6186 606.913 68.5542 608.369 71.0636 610.571C73.5494 612.749 75.4907 615.566 76.8875 619.022C78.2606 622.455 78.9472 626.42 78.9472 630.919ZM77.8818 585.642L23.3364 600.485L23.3364 585.18L59.9841 576.728L59.9841 576.231L23.3364 567.424L23.3364 552.403L59.771 543.454L59.771 542.992L23.3364 534.683L23.3364 519.413L77.8818 534.221L77.8818 550.237L43.5779 559.612L43.5779 560.286L77.8818 569.661L77.8818 585.642ZM30.6162 423.745L30.6162 439.299C28.6039 439.583 26.8165 440.163 25.254 441.039C23.6678 441.915 22.3184 443.04 21.2057 444.413C20.093 445.786 19.2407 447.372 18.6489 449.171C18.057 450.947 17.7611 452.876 17.7611 454.96C17.7611 458.724 18.6962 462.003 20.5665 464.796C22.4131 467.59 25.1119 469.756 28.6631 471.295C32.1905 472.834 36.4756 473.603 41.5182 473.603C46.7028 473.603 51.0589 472.834 54.5864 471.295C58.1138 469.733 60.7772 467.554 62.5764 464.761C64.3757 461.967 65.2753 458.736 65.2753 455.066C65.2753 453.007 65.003 451.101 64.4585 449.349C63.914 447.573 63.1209 445.999 62.0793 444.626C61.0139 443.253 59.7237 442.117 58.2085 441.217C56.6934 440.294 54.9652 439.654 53.0239 439.299L53.0949 423.745C56.433 424.148 59.6527 425.154 62.754 426.764C65.8316 428.35 68.5897 430.492 71.0281 433.191C73.4429 435.867 75.3605 439.063 76.781 442.779C78.1778 446.473 78.8761 450.651 78.8761 455.315C78.8761 461.802 77.4083 467.602 74.4727 472.715C71.5371 477.805 67.2876 481.83 61.7242 484.789C56.1607 487.725 49.4254 489.193 41.5182 489.193C33.5873 489.193 26.8402 487.701 21.2767 484.718C15.7133 481.735 11.4756 477.687 8.56364 472.573C5.62803 467.46 4.16023 461.707 4.16023 455.315C4.16023 451.101 4.75209 447.195 5.9358 443.596C7.11951 439.974 8.84773 436.766 11.1205 433.973C13.3695 431.179 16.1276 428.906 19.3946 427.154C22.6616 425.379 26.4022 424.242 30.6162 423.745ZM78.9472 388.358C78.9472 393.874 77.7753 398.645 75.4315 402.669C73.0641 406.67 69.7734 409.76 65.5594 411.938C61.3217 414.116 56.4093 415.205 50.8222 415.205C45.1877 415.205 40.2634 414.116 36.0494 411.938C31.8117 409.76 28.521 406.67 26.1773 402.669C23.8099 398.645 22.6261 393.874 22.6261 388.358C22.6261 382.842 23.8098 378.084 26.1773 374.083C28.521 370.058 31.8117 366.957 36.0494 364.779C40.2634 362.601 45.1877 361.512 50.8222 361.512C56.4093 361.512 61.3217 362.601 65.5594 364.779C69.7734 366.957 73.0641 370.058 75.4315 374.083C77.7753 378.084 78.9472 382.842 78.9472 388.358ZM67.2284 388.287C67.2284 385.778 66.5182 383.683 65.0977 382.002C63.6536 380.321 61.6886 379.054 59.2028 378.202C56.717 377.326 53.888 376.888 50.7156 376.888C47.5433 376.888 44.7142 377.326 42.2284 378.202C39.7426 379.054 37.7777 380.321 36.3335 382.002C34.8894 383.683 34.1673 385.778 34.1673 388.287C34.1673 390.82 34.8894 392.951 36.3335 394.679C37.7777 396.384 39.7426 397.674 42.2284 398.55C44.7142 399.402 47.5433 399.828 50.7156 399.828C53.888 399.828 56.717 399.402 59.2028 398.55C61.6886 397.674 63.6536 396.384 65.0977 394.679C66.5182 392.951 67.2284 390.82 67.2284 388.287ZM5.15454 336.547L77.8818 336.547L77.8818 351.675L5.15454 351.675L5.15454 336.547ZM5.15454 309.301L77.8818 309.301L77.8818 324.429L5.15454 324.429L5.15454 309.301ZM78.9472 272.325C78.9472 277.936 77.8108 282.765 75.5381 286.813C73.2417 290.838 69.9983 293.939 65.808 296.117C61.5939 298.295 56.6105 299.384 50.8577 299.384C45.2469 299.384 40.3226 298.295 36.0849 296.117C31.8473 293.939 28.5447 290.874 26.1773 286.92C23.8098 282.943 22.6261 278.279 22.6261 272.929C22.6261 269.33 23.2062 265.98 24.3662 262.879C25.5026 259.754 27.2189 257.031 29.5153 254.711C31.8117 252.367 34.7 250.545 38.1801 249.242C41.6365 247.94 45.6848 247.289 50.325 247.289L54.4798 247.289L54.4798 293.348L45.1048 293.348L45.1048 261.529C42.9268 261.529 40.9973 262.003 39.3165 262.95C37.6356 263.897 36.3217 265.211 35.3747 266.892C34.4041 268.549 33.9187 270.478 33.9187 272.68C33.9187 274.976 34.4514 277.012 35.5168 278.788C36.5584 280.54 37.967 281.913 39.7426 282.907C41.4945 283.902 43.4476 284.411 45.602 284.434L54.5153 284.434C57.2142 284.434 59.5461 283.937 61.5111 282.943C63.476 281.925 64.9912 280.492 66.0565 278.646C67.1219 276.799 67.6545 274.609 67.6545 272.076C67.6545 270.395 67.4178 268.857 66.9443 267.46C66.4708 266.063 65.7606 264.867 64.8136 263.873C63.8667 262.879 62.7066 262.121 61.3335 261.6L62.2568 247.609C65.6186 248.319 68.5542 249.775 71.0636 251.977C73.5494 254.155 75.4907 256.972 76.8875 260.429C78.2606 263.861 78.9472 267.827 78.9472 272.325ZM78.9472 212.772C78.9472 218.359 77.7634 223.165 75.396 227.19C73.0049 231.191 69.6905 234.268 65.4528 236.423C61.2151 238.554 56.3383 239.619 50.8222 239.619C45.235 239.619 40.3345 238.542 36.1204 236.387C31.8828 234.209 28.5802 231.12 26.2128 227.119C23.8217 223.118 22.6261 218.359 22.6261 212.843C22.6261 208.085 23.4902 203.918 25.2185 200.343C26.9467 196.768 29.3733 193.939 32.4983 191.856C35.6233 189.773 39.2928 188.625 43.5068 188.411L43.5068 202.687C40.7843 203.09 38.5944 204.155 36.9372 205.883C35.2563 207.588 34.4159 209.825 34.4159 212.595C34.4159 214.938 35.0551 216.986 36.3335 218.738C37.5883 220.466 39.423 221.816 41.8378 222.786C44.2526 223.757 47.1763 224.242 50.6091 224.242C54.0892 224.242 57.0485 223.769 59.4869 222.822C61.9254 221.851 63.7838 220.49 65.0622 218.738C66.3406 216.986 66.9798 214.938 66.9798 212.595C66.9798 210.867 66.6247 209.316 65.9145 207.943C65.2043 206.546 64.1744 205.398 62.825 204.498C61.4519 203.575 59.8065 202.971 57.8889 202.687L57.8889 188.411C62.0556 188.648 65.7251 189.785 68.8974 191.821C72.0461 193.833 74.5082 196.615 76.2838 200.166C78.0594 203.717 78.9472 207.919 78.9472 212.772ZM23.3364 149.713L34.7 149.713L34.7 182.561L23.3364 182.561L23.3364 149.713ZM10.2682 175.104L10.2682 159.976L61.1204 159.976C62.5172 159.976 63.6062 159.763 64.3875 159.337C65.1451 158.91 65.6777 158.319 65.9855 157.561C66.2933 156.78 66.4472 155.88 66.4472 154.862C66.4472 154.152 66.388 153.442 66.2696 152.731C66.1275 152.021 66.021 151.477 65.95 151.098L77.2071 148.719C77.4438 149.476 77.7161 150.542 78.0239 151.915C78.3553 153.288 78.5565 154.957 78.6275 156.922C78.7696 160.568 78.2843 163.764 77.1716 166.51C76.0589 169.232 74.3307 171.351 71.9869 172.866C69.6432 174.382 66.6839 175.127 63.1091 175.104L10.2682 175.104ZM77.8818 139.859L23.3364 139.859L23.3364 124.731L77.8818 124.731L77.8818 139.859ZM16.3051 132.259C16.3051 134.508 15.5594 136.438 14.0679 138.047C12.5527 139.634 10.7417 140.427 8.63465 140.427C6.55131 140.427 4.76391 139.634 3.27243 138.047C1.75728 136.438 0.999704 134.508 0.999704 132.259C0.999703 130.01 1.75728 128.092 3.27243 126.506C4.76391 124.896 6.55131 124.092 8.63465 124.092C10.7417 124.092 12.5527 124.896 14.0679 126.506C15.5594 128.092 16.3051 130.01 16.3051 132.259ZM78.9471 87.9676C78.9471 93.4837 77.7753 98.254 75.4315 102.279C73.0641 106.28 69.7734 109.369 65.5594 111.547C61.3217 113.725 56.4093 114.814 50.8221 114.814C45.1877 114.814 40.2634 113.725 36.0494 111.547C31.8117 109.369 28.521 106.28 26.1773 102.279C23.8098 98.2541 22.6261 93.4837 22.6261 87.9676C22.6261 82.4515 23.8098 77.693 26.1773 73.692C28.521 69.6674 31.8117 66.5661 36.0494 64.388C40.2634 62.21 45.1877 61.121 50.8221 61.121C56.4093 61.121 61.3217 62.21 65.5594 64.388C69.7734 66.5661 73.0641 69.6674 75.4315 73.692C77.7753 77.693 78.9471 82.4515 78.9471 87.9676ZM67.2284 87.8966C67.2284 85.3871 66.5182 83.2919 65.0977 81.6111C63.6536 79.9302 61.6886 78.6636 59.2028 77.8113C56.717 76.9354 53.888 76.4974 50.7156 76.4974C47.5433 76.4974 44.7142 76.9354 42.2284 77.8113C39.7426 78.6636 37.7776 79.9302 36.3335 81.6111C34.8894 83.2919 34.1673 85.3871 34.1673 87.8966C34.1673 90.4297 34.8894 92.5604 36.3335 94.2886C37.7776 95.9932 39.7426 97.2834 42.2284 98.1594C44.7142 99.0116 47.5433 99.4378 50.7156 99.4378C53.888 99.4378 56.717 99.0116 59.2028 98.1594C61.6886 97.2834 63.6536 95.9932 65.0977 94.2886C66.5182 92.5604 67.2284 90.4297 67.2284 87.8966ZM46.3477 36.1565L77.8818 36.1565L77.8818 51.2844L23.3363 51.2844L23.3363 36.8667L32.9599 36.8667L32.9599 36.2275C29.7876 35.0202 27.2781 32.996 25.4315 30.1551C23.5613 27.3142 22.6261 23.8696 22.6261 19.8213C22.6261 16.0334 23.4547 12.7309 25.1119 9.91362C26.7691 7.09638 29.1365 4.90651 32.2142 3.34401C35.2682 1.78151 38.914 1.00026 43.1517 1.00026L77.8818 1.00026L77.8818 16.1281L45.8506 16.1281C42.5125 16.1044 39.9083 16.9567 38.0381 18.6849C36.1441 20.4131 35.1971 22.7924 35.1971 25.8227C35.1971 27.8587 35.6351 29.6579 36.5111 31.2204C37.387 32.7593 38.6654 33.9666 40.3463 34.8426C42.0035 35.6949 44.004 36.1328 46.3477 36.1565Z"/>
</mask>
<path d="M5.15456 668.197L5.15456 667.197L4.15456 667.197L4.15456 668.197L5.15456 668.197ZM77.8818 668.197L78.8818 668.197L78.8818 667.197L77.8818 667.197L77.8818 668.197ZM77.8818 681.478L78.4504 682.3L78.8818 682.002L78.8818 681.478L77.8818 681.478ZM32.1077 713.119L31.5391 712.296L31.1077 712.594L31.1077 713.119L32.1077 713.119ZM32.1077 713.651L31.1077 713.651L31.1077 714.651L32.1077 714.651L32.1077 713.651ZM77.8818 713.651L78.8818 713.651L78.8818 712.651L77.8818 712.651L77.8818 713.651ZM77.8818 729.028L77.8818 730.028L78.8818 730.028L78.8818 729.028L77.8818 729.028ZM5.15456 729.028L4.15456 729.028L4.15456 730.028L5.15456 730.028L5.15456 729.028ZM5.15456 715.533L4.58868 714.709L4.15456 715.007L4.15456 715.533L5.15456 715.533ZM50.8932 684.141L51.4591 684.966L51.8932 684.668L51.8932 684.141L50.8932 684.141ZM50.8932 683.502L51.8932 683.502L51.8932 682.502L50.8932 682.502L50.8932 683.502ZM5.15456 683.502L4.15456 683.502L4.15456 684.502L5.15456 684.502L5.15456 683.502ZM5.15456 668.197L5.15456 669.197L77.8818 669.197L77.8818 668.197L77.8818 667.197L5.15456 667.197L5.15456 668.197ZM77.8818 668.197L76.8818 668.197L76.8818 681.478L77.8818 681.478L78.8818 681.478L78.8818 668.197L77.8818 668.197ZM77.8818 681.478L77.3132 680.655L31.5391 712.296L32.1077 713.119L32.6763 713.941L78.4504 682.3L77.8818 681.478ZM32.1077 713.119L31.1077 713.119L31.1077 713.651L32.1077 713.651L33.1077 713.651L33.1077 713.119L32.1077 713.119ZM32.1077 713.651L32.1077 714.651L77.8818 714.651L77.8818 713.651L77.8818 712.651L32.1077 712.651L32.1077 713.651ZM77.8818 713.651L76.8818 713.651L76.8818 729.028L77.8818 729.028L78.8818 729.028L78.8818 713.651L77.8818 713.651ZM77.8818 729.028L77.8818 728.028L5.15456 728.028L5.15456 729.028L5.15456 730.028L77.8818 730.028L77.8818 729.028ZM5.15456 729.028L6.15456 729.028L6.15456 715.533L5.15456 715.533L4.15456 715.533L4.15456 729.028L5.15456 729.028ZM5.15456 715.533L5.72044 716.358L51.4591 684.966L50.8932 684.141L50.3273 683.317L4.58868 714.709L5.15456 715.533ZM50.8932 684.141L51.8932 684.141L51.8932 683.502L50.8932 683.502L49.8932 683.502L49.8932 684.141L50.8932 684.141ZM50.8932 683.502L50.8932 682.502L5.15456 682.502L5.15456 683.502L5.15456 684.502L50.8932 684.502L50.8932 683.502ZM5.15456 683.502L6.15456 683.502L6.15456 668.197L5.15456 668.197L4.15456 668.197L4.15456 683.502L5.15456 683.502ZM75.5381 645.407L76.4067 645.903L76.4101 645.897L75.5381 645.407ZM65.808 654.711L66.2671 655.6L66.2692 655.598L65.808 654.711ZM36.085 654.711L35.6278 655.601L36.085 654.711ZM26.1773 645.514L25.318 646.025L25.3193 646.027L26.1773 645.514ZM24.3662 621.473L25.3029 621.823L25.306 621.814L24.3662 621.473ZM29.5154 613.305L30.2261 614.008L30.2296 614.005L29.5154 613.305ZM38.1801 607.836L38.5306 608.773L38.5327 608.772L38.1801 607.836ZM54.4798 605.883L55.4798 605.883L55.4798 604.883L54.4798 604.883L54.4798 605.883ZM54.4798 651.941L54.4798 652.941L55.4798 652.941L55.4798 651.941L54.4798 651.941ZM45.1048 651.941L44.1048 651.941L44.1048 652.941L45.1048 652.941L45.1048 651.941ZM45.1048 620.123L46.1048 620.123L46.1048 619.123L45.1048 619.123L45.1048 620.123ZM39.3165 621.544L39.8073 622.415L39.8073 622.415L39.3165 621.544ZM35.3747 625.485L36.2376 625.991L36.2419 625.984L36.246 625.976L35.3747 625.485ZM35.5168 637.382L36.3763 636.871L36.3743 636.867L35.5168 637.382ZM39.7426 641.501L40.2362 640.631L40.2312 640.628L39.7426 641.501ZM45.602 643.028L45.591 644.028L45.602 644.028L45.602 643.028ZM61.5111 641.536L61.9626 642.429L61.9711 642.424L61.5111 641.536ZM66.9443 626.054L65.9973 626.375L66.9443 626.054ZM64.8136 622.467L64.0895 623.157L64.8136 622.467ZM61.3335 620.194L60.3357 620.128L60.287 620.867L60.9789 621.129L61.3335 620.194ZM62.2568 606.203L62.4635 605.224L61.335 604.986L61.259 606.137L62.2568 606.203ZM71.0636 610.571L70.4041 611.322L70.4046 611.323L71.0636 610.571ZM76.8875 619.022L77.816 618.651L77.8147 618.648L76.8875 619.022ZM78.9472 630.919L77.9472 630.919C77.9472 636.394 76.839 641.047 74.6661 644.918L75.5381 645.407L76.4101 645.897C78.7826 641.671 79.9472 636.665 79.9472 630.919L78.9472 630.919ZM75.5381 645.407L74.6695 644.912C72.4703 648.766 69.37 651.733 65.3468 653.824L65.808 654.711L66.2692 655.598C70.6267 653.334 74.013 650.098 76.4066 645.903L75.5381 645.407ZM65.808 654.711L65.3488 653.823C61.3039 655.913 56.4844 656.978 50.8577 656.978L50.8577 657.978L50.8577 658.978C56.7367 658.978 61.884 657.865 66.2671 655.6L65.808 654.711ZM50.8577 657.978L50.8577 656.978C45.3777 656.978 40.6153 655.915 36.5421 653.822L36.085 654.711L35.6278 655.601C40.03 657.863 45.1161 658.978 50.8577 658.978L50.8577 657.978ZM36.085 654.711L36.5421 653.822C32.4645 651.726 29.3034 648.788 27.0352 645L26.1773 645.514L25.3193 646.027C27.786 650.147 31.23 653.34 35.6278 655.601L36.085 654.711ZM26.1773 645.514L27.0366 645.002C24.7748 641.203 23.6262 636.721 23.6262 631.522L22.6262 631.522L21.6262 631.522C21.6262 637.024 22.8449 641.87 25.318 646.025L26.1773 645.514ZM22.6262 631.522L23.6262 631.522C23.6262 628.033 24.1882 624.803 25.3028 621.823L24.3662 621.473L23.4296 621.122C22.2241 624.345 21.6262 627.815 21.6262 631.522L22.6262 631.522ZM24.3662 621.473L25.306 621.814C26.394 618.822 28.0332 616.224 30.2261 614.008L29.5154 613.305L28.8046 612.601C26.4047 615.026 24.6112 617.873 23.4264 621.131L24.3662 621.473ZM29.5154 613.305L30.2296 614.005C32.4108 611.779 35.1694 610.03 38.5306 608.773L38.1801 607.836L37.8297 606.9C34.2306 608.246 31.2127 610.144 28.8011 612.605L29.5154 613.305ZM38.1801 607.836L38.5327 608.772C41.8517 607.522 45.7757 606.883 50.325 606.883L50.325 605.883L50.325 604.883C45.5941 604.883 41.4215 605.547 37.8276 606.9L38.1801 607.836ZM50.325 605.883L50.325 606.883L54.4798 606.883L54.4798 605.883L54.4798 604.883L50.325 604.883L50.325 605.883ZM54.4798 605.883L53.4798 605.883L53.4798 651.941L54.4798 651.941L55.4798 651.941L55.4798 605.883L54.4798 605.883ZM54.4798 651.941L54.4798 650.941L45.1048 650.941L45.1048 651.941L45.1048 652.941L54.4798 652.941L54.4798 651.941ZM45.1048 651.941L46.1048 651.941L46.1048 620.123L45.1048 620.123L44.1048 620.123L44.1048 651.941L45.1048 651.941ZM45.1048 620.123L45.1048 619.123C42.7774 619.123 40.6748 619.631 38.8256 620.672L39.3165 621.544L39.8073 622.415C41.3199 621.563 43.0762 621.123 45.1048 621.123L45.1048 620.123ZM39.3165 621.544L38.8256 620.672C36.9856 621.709 35.5401 623.154 34.5035 624.995L35.3747 625.485L36.246 625.976C37.1033 624.454 38.2856 623.272 39.8073 622.415L39.3165 621.544ZM35.3747 625.485L34.5118 624.98C33.4389 626.812 32.9188 628.921 32.9188 631.274L33.9188 631.274L34.9188 631.274C34.9188 629.223 35.3692 627.473 36.2376 625.991L35.3747 625.485ZM33.9188 631.274L32.9188 631.274C32.9188 633.731 33.4908 635.949 34.6593 637.896L35.5168 637.382L36.3743 636.867C35.4121 635.264 34.9188 633.409 34.9188 631.274L33.9188 631.274ZM35.5168 637.382L34.6572 637.893C35.7885 639.795 37.325 641.293 39.254 642.373L39.7426 641.501L40.2312 640.628C38.6091 639.72 37.3284 638.472 36.3763 636.871L35.5168 637.382ZM39.7426 641.501L39.249 642.371C41.1584 643.454 43.2795 644.002 45.591 644.028L45.602 643.028L45.613 642.028C43.6158 642.006 41.8307 641.536 40.2362 640.631L39.7426 641.501ZM45.602 643.028L45.602 644.028L54.5154 644.028L54.5154 643.028L54.5154 642.028L45.602 642.028L45.602 643.028ZM54.5154 643.028L54.5154 644.028C57.3363 644.028 59.8296 643.508 61.9626 642.429L61.5111 641.536L61.0596 640.644C59.2627 641.554 57.0922 642.028 54.5154 642.028L54.5154 643.028ZM61.5111 641.536L61.9711 642.424C64.099 641.322 65.7581 639.758 66.9227 637.739L66.0565 637.24L65.1904 636.74C64.2243 638.414 62.8531 639.715 61.0511 640.649L61.5111 641.536ZM66.0565 637.24L66.9227 637.739C68.0909 635.714 68.6546 633.345 68.6546 630.67L67.6546 630.67L66.6546 630.67C66.6546 633.061 66.1528 635.072 65.1904 636.74L66.0565 637.24ZM67.6546 630.67L68.6546 630.67C68.6546 628.895 68.4045 627.246 67.8914 625.732L66.9443 626.054L65.9973 626.375C66.4312 627.655 66.6546 629.083 66.6546 630.67L67.6546 630.67ZM66.9443 626.054L67.8914 625.732C67.3748 624.208 66.5922 622.884 65.5378 621.777L64.8136 622.467L64.0895 623.157C64.929 624.038 65.5669 625.105 65.9973 626.375L66.9443 626.054ZM64.8136 622.467L65.5378 621.777C64.4805 620.667 63.1913 619.829 61.6882 619.259L61.3335 620.194L60.9789 621.129C62.2219 621.601 63.2529 622.278 64.0895 623.157L64.8136 622.467ZM61.3335 620.194L62.3314 620.26L63.2547 606.269L62.2568 606.203L61.259 606.137L60.3357 620.128L61.3335 620.194ZM62.2568 606.203L62.0501 607.181C65.2491 607.857 68.0275 609.237 70.4041 611.322L71.0636 610.571L71.7232 609.819C69.0808 607.501 65.988 605.969 62.4635 605.224L62.2568 606.203ZM71.0636 610.571L70.4046 611.323C72.7584 613.385 74.6146 616.067 75.9604 619.397L76.8875 619.022L77.8147 618.648C76.3668 615.065 74.3404 612.112 71.7227 609.818L71.0636 610.571ZM76.8875 619.022L75.959 619.394C77.2759 622.686 77.9472 626.521 77.9472 630.919L78.9472 630.919L79.9472 630.919C79.9472 626.32 79.2454 622.224 77.816 618.651L76.8875 619.022ZM77.8818 585.642L78.1444 586.607L78.8818 586.406L78.8818 585.642L77.8818 585.642ZM23.3364 600.485L22.3364 600.485L22.3364 601.794L23.599 601.45L23.3364 600.485ZM23.3364 585.18L23.1117 584.206L22.3364 584.384L22.3364 585.18L23.3364 585.18ZM59.9841 576.728L60.2088 577.703L60.9841 577.524L60.9841 576.728L59.9841 576.728ZM59.9841 576.231L60.9841 576.231L60.9841 575.443L60.2178 575.259L59.9841 576.231ZM23.3364 567.424L22.3364 567.424L22.3364 568.212L23.1027 568.397L23.3364 567.424ZM23.3364 552.403L23.0978 551.432L22.3364 551.619L22.3364 552.403L23.3364 552.403ZM59.771 543.454L60.0096 544.425L60.771 544.238L60.771 543.454L59.771 543.454ZM59.771 542.992L60.771 542.992L60.771 542.195L59.9934 542.017L59.771 542.992ZM23.3364 534.683L22.3364 534.683L22.3364 535.48L23.114 535.658L23.3364 534.683ZM23.3364 519.413L23.5984 518.448L22.3364 518.105L22.3364 519.413L23.3364 519.413ZM77.8818 534.221L78.8818 534.221L78.8818 533.456L78.1438 533.256L77.8818 534.221ZM77.8818 550.237L78.1455 551.201L78.8818 551L78.8818 550.237L77.8818 550.237ZM43.5779 559.612L43.3142 558.647L42.5779 558.848L42.5779 559.612L43.5779 559.612ZM43.5779 560.286L42.5779 560.286L42.5779 561.05L43.3142 561.251L43.5779 560.286ZM77.8818 569.661L78.8818 569.661L78.8818 568.898L78.1455 568.697L77.8818 569.661ZM77.8818 585.642L77.6192 584.677L23.0738 599.52L23.3364 600.485L23.599 601.45L78.1444 586.607L77.8818 585.642ZM23.3364 600.485L24.3364 600.485L24.3364 585.18L23.3364 585.18L22.3364 585.18L22.3364 600.485L23.3364 600.485ZM23.3364 585.18L23.5611 586.154L60.2088 577.703L59.9841 576.728L59.7594 575.754L23.1117 584.206L23.3364 585.18ZM59.9841 576.728L60.9841 576.728L60.9841 576.231L59.9841 576.231L58.9841 576.231L58.9841 576.728L59.9841 576.728ZM59.9841 576.231L60.2178 575.259L23.57 566.452L23.3364 567.424L23.1027 568.397L59.7504 577.203L59.9841 576.231ZM23.3364 567.424L24.3364 567.424L24.3364 552.403L23.3364 552.403L22.3364 552.403L22.3364 567.424L23.3364 567.424ZM23.3364 552.403L23.5749 553.374L60.0096 544.425L59.771 543.454L59.5325 542.483L23.0978 551.432L23.3364 552.403ZM59.771 543.454L60.771 543.454L60.771 542.992L59.771 542.992L58.771 542.992L58.771 543.454L59.771 543.454ZM59.771 542.992L59.9934 542.017L23.5587 533.708L23.3364 534.683L23.114 535.658L59.5487 543.967L59.771 542.992ZM23.3364 534.683L24.3364 534.683L24.3364 519.413L23.3364 519.413L22.3364 519.413L22.3364 534.683L23.3364 534.683ZM23.3364 519.413L23.0744 520.378L77.6198 535.186L77.8818 534.221L78.1438 533.256L23.5984 518.448L23.3364 519.413ZM77.8818 534.221L76.8818 534.221L76.8818 550.237L77.8818 550.237L78.8818 550.237L78.8818 534.221L77.8818 534.221ZM77.8818 550.237L77.6182 549.272L43.3142 558.647L43.5779 559.612L43.8415 560.576L78.1455 551.201L77.8818 550.237ZM43.5779 559.612L42.5779 559.612L42.5779 560.286L43.5779 560.286L44.5779 560.286L44.5779 559.612L43.5779 559.612ZM43.5779 560.286L43.3142 561.251L77.6182 570.626L77.8818 569.661L78.1455 568.697L43.8415 559.322L43.5779 560.286ZM77.8818 569.661L76.8818 569.661L76.8818 585.642L77.8818 585.642L78.8818 585.642L78.8818 569.661L77.8818 569.661ZM30.6162 423.745L31.6162 423.745L31.6162 422.62L30.499 422.752L30.6162 423.745ZM30.6162 439.299L30.756 440.289L31.6162 440.168L31.6162 439.299L30.6162 439.299ZM25.254 441.039L25.7374 441.915L25.743 441.912L25.254 441.039ZM21.2057 444.413L21.9826 445.042L21.2057 444.413ZM18.6489 449.171L19.5976 449.488L19.5988 449.484L18.6489 449.171ZM20.5665 464.796L21.4007 464.245L21.3974 464.24L20.5665 464.796ZM28.6631 471.295L29.0629 470.378L29.0607 470.377L28.6631 471.295ZM54.5864 471.295L54.9862 472.212L54.9914 472.209L54.5864 471.295ZM62.5764 464.761L63.4171 465.302L62.5764 464.761ZM64.4585 449.349L63.5025 449.642L63.5036 449.646L64.4585 449.349ZM62.0793 444.626L62.876 444.022L62.8693 444.013L62.0793 444.626ZM58.2085 441.217L57.6881 442.071L57.698 442.077L58.2085 441.217ZM53.0239 439.299L52.0239 439.295L52.0201 440.132L52.8439 440.283L53.0239 439.299ZM53.0949 423.745L53.2146 422.752L52.1 422.618L52.0949 423.741L53.0949 423.745ZM62.754 426.764L62.2933 427.651L62.2959 427.653L62.754 426.764ZM71.0281 433.191L71.7704 432.521L71.7701 432.521L71.0281 433.191ZM76.781 442.779L77.7163 442.426L77.7151 442.422L76.781 442.779ZM74.4727 472.715L75.339 473.215L75.34 473.213L74.4727 472.715ZM61.7242 484.789L62.1908 485.674L62.1938 485.672L61.7242 484.789ZM21.2767 484.718L21.7492 483.837L21.2767 484.718ZM8.56364 472.573L9.43263 472.079L9.4309 472.076L8.56364 472.573ZM5.9358 443.596L6.88573 443.909L6.88633 443.907L5.9358 443.596ZM11.1205 433.973L11.8962 434.604L11.8994 434.6L11.1205 433.973ZM19.3946 427.154L19.8672 428.036L19.8721 428.033L19.3946 427.154ZM30.6162 423.745L29.6162 423.745L29.6162 439.299L30.6162 439.299L31.6162 439.299L31.6162 423.745L30.6162 423.745ZM30.6162 439.299L30.4764 438.309C28.3578 438.608 26.4491 439.223 24.765 440.167L25.254 441.039L25.743 441.912C27.1838 441.104 28.85 440.559 30.756 440.289L30.6162 439.299ZM25.254 441.039L24.7706 440.164C23.0745 441.101 21.6246 442.308 20.4288 443.783L21.2057 444.413L21.9826 445.042C23.0121 443.772 24.2611 442.73 25.7374 441.915L25.254 441.039ZM21.2057 444.413L20.4288 443.783C19.2343 445.257 18.326 446.953 17.6989 448.859L18.6489 449.171L19.5988 449.484C20.1555 447.792 20.9517 446.315 21.9826 445.042L21.2057 444.413ZM18.6489 449.171L17.7002 448.855C17.0707 450.744 16.7611 452.781 16.7611 454.96L17.7611 454.96L18.7611 454.96C18.7611 452.972 19.0433 451.15 19.5976 449.488L18.6489 449.171ZM17.7611 454.96L16.7611 454.96C16.7611 458.897 17.7421 462.375 19.7355 465.353L20.5665 464.796L21.3974 464.24C19.6503 461.63 18.7611 458.55 18.7611 454.96L17.7611 454.96ZM20.5665 464.796L19.7323 465.348C21.7017 468.327 24.5648 470.609 28.2655 472.213L28.6631 471.295L29.0607 470.377C25.6591 468.903 23.1245 466.853 21.4007 464.245L20.5665 464.796ZM28.6631 471.295L28.2632 472.212C31.9494 473.82 36.3787 474.603 41.5182 474.603L41.5182 473.603L41.5182 472.603C36.5725 472.603 32.4316 471.848 29.0629 470.378L28.6631 471.295ZM41.5182 473.603L41.5182 474.603C46.7953 474.603 51.297 473.821 54.9862 472.212L54.5864 471.295L54.1865 470.378C50.8208 471.847 46.6104 472.603 41.5182 472.603L41.5182 473.603ZM54.5864 471.295L54.9914 472.209C58.6679 470.581 61.496 468.285 63.4171 465.302L62.5764 464.761L61.7357 464.219C60.0584 466.824 57.5597 468.884 54.1814 470.381L54.5864 471.295ZM62.5764 464.761L63.4171 465.302C65.3311 462.331 66.2753 458.907 66.2753 455.066L65.2753 455.066L64.2753 455.066C64.2753 458.565 63.4203 461.604 61.7357 464.219L62.5764 464.761ZM65.2753 455.066L66.2753 455.066C66.2753 452.918 65.9913 450.911 65.4135 449.052L64.4585 449.349L63.5036 449.646C64.0148 451.291 64.2753 453.095 64.2753 455.066L65.2753 455.066ZM64.4585 449.349L65.4146 449.056C64.8383 447.177 63.9939 445.495 62.876 444.022L62.0793 444.626L61.2826 445.23C62.2479 446.503 62.9897 447.97 63.5025 449.642L64.4585 449.349ZM62.0793 444.626L62.8693 444.013C61.726 442.539 60.3405 441.32 58.7191 440.357L58.2085 441.217L57.698 442.077C59.1068 442.913 60.3018 443.966 61.2892 445.239L62.0793 444.626ZM58.2085 441.217L58.7289 440.363C57.0981 439.369 55.2521 438.69 53.2038 438.316L53.0239 439.299L52.8439 440.283C54.6782 440.618 56.2887 441.218 57.6882 442.071L58.2085 441.217ZM53.0239 439.299L54.0239 439.304L54.0949 423.75L53.0949 423.745L52.0949 423.741L52.0239 439.295L53.0239 439.299ZM53.0949 423.745L52.9752 424.738C56.1895 425.126 59.2941 426.095 62.2933 427.651L62.754 426.764L63.2147 425.876C60.0112 424.213 56.6764 423.17 53.2146 422.752L53.0949 423.745ZM62.754 426.764L62.2959 427.653C65.2612 429.181 67.9243 431.248 70.2861 433.862L71.0281 433.191L71.7701 432.521C69.2551 429.737 66.4021 427.519 63.2121 425.875L62.754 426.764ZM71.0281 433.191L70.2858 433.861C72.6097 436.436 74.4659 439.523 75.8469 443.136L76.781 442.779L77.7151 442.422C76.2551 438.602 74.2761 435.297 71.7704 432.521L71.0281 433.191ZM76.781 442.779L75.8456 443.133C77.1927 446.695 77.8761 450.75 77.8761 455.315L78.8761 455.315L79.8761 455.315C79.8761 450.552 79.1628 446.25 77.7163 442.426L76.781 442.779ZM78.8761 455.315L77.8761 455.315C77.8761 461.645 76.4456 467.27 73.6055 472.218L74.4727 472.715L75.34 473.213C78.3711 467.933 79.8761 461.958 79.8761 455.315L78.8761 455.315ZM74.4727 472.715L73.6065 472.216C70.7714 477.132 66.665 481.029 61.2545 483.906L61.7242 484.789L62.1938 485.672C67.9102 482.632 72.3029 478.479 75.339 473.215L74.4727 472.715ZM61.7242 484.789L61.2575 483.905C55.8702 486.748 49.3037 488.193 41.5182 488.193L41.5182 489.193L41.5182 490.193C49.5471 490.193 56.4512 488.702 62.1908 485.674L61.7242 484.789ZM41.5182 489.193L41.5182 488.193C33.7108 488.193 27.1348 486.725 21.7492 483.837L21.2767 484.718L20.8042 485.6C26.5455 488.678 33.4639 490.193 41.5182 490.193L41.5182 489.193ZM21.2767 484.718L21.7492 483.837C16.3391 480.936 12.2446 477.017 9.43263 472.079L8.56364 472.573L7.69466 473.068C10.7066 478.357 15.0874 482.534 20.8042 485.6L21.2767 484.718ZM8.56364 472.573L9.4309 472.076C6.58951 467.126 5.16023 461.547 5.16023 455.315L4.16023 455.315L3.16023 455.315C3.16023 461.867 4.66656 467.794 7.69639 473.071L8.56364 472.573ZM4.16023 455.315L5.16023 455.315C5.16023 451.195 5.73868 447.396 6.88572 443.909L5.9358 443.596L4.98587 443.284C3.76549 446.994 3.16023 451.007 3.16023 455.315L4.16023 455.315ZM5.9358 443.596L6.88633 443.907C8.03416 440.394 9.70531 437.297 11.8962 434.604L11.1205 433.973L10.3447 433.341C7.99015 436.236 6.20486 439.554 4.98527 443.286L5.9358 443.596ZM11.1205 433.973L11.8994 434.6C14.0615 431.914 16.7142 429.726 19.8672 428.036L19.3946 427.154L18.922 426.273C15.5409 428.086 12.6775 430.444 10.3415 433.345L11.1205 433.973ZM19.3946 427.154L19.8721 428.033C23.0128 426.326 26.628 425.223 30.7334 424.738L30.6162 423.745L30.499 422.752C26.1764 423.262 22.3105 424.432 18.9171 426.276L19.3946 427.154ZM75.4315 402.669L76.2922 403.179L76.2957 403.173L75.4315 402.669ZM65.5594 411.938L66.0165 412.827L66.0185 412.826L65.5594 411.938ZM36.0494 411.938L36.5086 411.049L36.5066 411.048L36.0494 411.938ZM26.1773 402.669L27.0401 402.164L27.0392 402.162L26.1773 402.669ZM26.1773 374.083L27.0379 374.592L27.0414 374.586L26.1773 374.083ZM36.0494 364.779L36.5066 365.668L36.5086 365.667L36.0494 364.779ZM65.5594 364.779L66.0185 363.89L66.0165 363.889L65.5594 364.779ZM75.4315 374.083L76.2944 373.577L76.2935 373.576L75.4315 374.083ZM65.0977 382.002L65.8615 381.356L65.8562 381.35L65.0977 382.002ZM59.2028 378.202L58.8705 379.145L58.8785 379.148L59.2028 378.202ZM42.2284 378.202L42.5527 379.148L42.5608 379.145L42.2284 378.202ZM36.3335 394.679L35.5661 395.32L35.5705 395.326L36.3335 394.679ZM42.2284 398.55L41.8961 399.493L41.9041 399.496L42.2284 398.55ZM59.2028 398.55L59.5272 399.496L59.5352 399.493L59.2028 398.55ZM65.0977 394.679L65.8607 395.326L65.8655 395.32L65.8703 395.314L65.0977 394.679ZM78.9472 388.358L77.9472 388.358C77.9472 393.73 76.807 398.32 74.5674 402.166L75.4315 402.669L76.2957 403.173C78.7436 398.969 79.9472 394.018 79.9472 388.358L78.9472 388.358ZM75.4315 402.669L74.5709 402.16C72.3011 405.996 69.1511 408.956 65.1002 411.049L65.5594 411.938L66.0185 412.826C70.3957 410.564 73.8271 407.344 76.2922 403.179L75.4315 402.669ZM65.5594 411.938L65.1023 411.048C61.0285 413.142 56.2777 414.205 50.8222 414.205L50.8222 415.205L50.8222 416.205C56.5409 416.205 61.6149 415.089 66.0165 412.827L65.5594 411.938ZM50.8222 415.205L50.8222 414.205C45.3176 414.205 40.5563 413.142 36.5086 411.049L36.0494 411.938L35.5903 412.826C39.9706 415.09 45.0578 416.205 50.8222 416.205L50.8222 415.205ZM36.0494 411.938L36.5066 411.048C32.4329 408.955 29.2851 405.996 27.0401 402.164L26.1773 402.669L25.3144 403.175C27.757 407.344 31.1906 410.565 35.5923 412.827L36.0494 411.938ZM26.1773 402.669L27.0392 402.162C24.7774 398.317 23.6261 393.729 23.6261 388.358L22.6261 388.358L21.6261 388.358C21.6261 394.02 22.8423 398.972 25.3153 403.176L26.1773 402.669ZM22.6261 388.358L23.6261 388.358C23.6261 382.988 24.7774 378.412 27.0379 374.592L26.1773 374.083L25.3166 373.573C22.8423 377.755 21.6261 382.697 21.6261 388.358L22.6261 388.358ZM26.1773 374.083L27.0414 374.586C29.2868 370.73 32.4345 367.761 36.5066 365.668L36.0494 364.779L35.5923 363.889C31.189 366.152 27.7552 369.386 25.3131 373.579L26.1773 374.083ZM36.0494 364.779L36.5086 365.667C40.5563 363.575 45.3176 362.512 50.8222 362.512L50.8222 361.512L50.8222 360.512C45.0578 360.512 39.9706 361.626 35.5903 363.89L36.0494 364.779ZM50.8222 361.512L50.8222 362.512C56.2777 362.512 61.0285 363.574 65.1023 365.668L65.5594 364.779L66.0165 363.889C61.6149 361.627 56.5409 360.512 50.8222 360.512L50.8222 361.512ZM65.5594 364.779L65.1002 365.667C69.1495 367.76 72.2994 370.73 74.5696 374.59L75.4315 374.083L76.2935 373.576C73.8288 369.386 70.3973 366.153 66.0185 363.89L65.5594 364.779ZM75.4315 374.083L74.5687 374.588C76.8069 378.409 77.9472 382.986 77.9472 388.358L78.9472 388.358L79.9472 388.358C79.9472 382.698 78.7436 377.758 76.2944 373.577L75.4315 374.083ZM67.2284 388.287L68.2284 388.287C68.2284 385.577 67.4558 383.243 65.8615 381.356L65.0977 382.002L64.3339 382.647C65.5806 384.122 66.2284 385.979 66.2284 388.287L67.2284 388.287ZM65.0977 382.002L65.8562 381.35C64.2762 379.511 62.1498 378.155 59.5272 377.256L59.2028 378.202L58.8785 379.148C61.2275 379.953 63.031 381.131 64.3392 382.653L65.0977 382.002ZM59.2028 378.202L59.5352 377.259C56.9234 376.338 53.9788 375.888 50.7156 375.888L50.7156 376.888L50.7156 377.888C53.7971 377.888 56.5107 378.314 58.8705 379.145L59.2028 378.202ZM50.7156 376.888L50.7156 375.888C47.4524 375.888 44.5079 376.338 41.8961 377.259L42.2284 378.202L42.5608 379.145C44.9206 378.314 47.6341 377.888 50.7156 377.888L50.7156 376.888ZM42.2284 378.202L41.9041 377.256C39.2814 378.155 37.155 379.511 35.575 381.35L36.3335 382.002L37.092 382.653C38.4003 381.131 40.2038 379.953 42.5527 379.148L42.2284 378.202ZM36.3335 382.002L35.575 381.35C33.9544 383.236 33.1673 385.572 33.1673 388.287L34.1673 388.287L35.1673 388.287C35.1673 385.983 35.8244 384.129 37.092 382.653L36.3335 382.002ZM34.1673 388.287L33.1673 388.287C33.1673 391.024 33.9529 393.39 35.5662 395.32L36.3335 394.679L37.1009 394.038C35.8259 392.512 35.1673 390.617 35.1673 388.287L34.1673 388.287ZM36.3335 394.679L35.5705 395.326C37.1485 397.188 39.2732 398.569 41.8961 399.493L42.2284 398.55L42.5608 397.607C40.212 396.779 38.4068 395.579 37.0965 394.033L36.3335 394.679ZM42.2284 398.55L41.9041 399.496C44.5133 400.391 47.4551 400.828 50.7156 400.828L50.7156 399.828L50.7156 398.828C47.6315 398.828 44.9151 398.414 42.5527 397.604L42.2284 398.55ZM50.7156 399.828L50.7156 400.828C53.9762 400.828 56.9179 400.391 59.5272 399.496L59.2028 398.55L58.8785 397.604C56.5162 398.414 53.7998 398.828 50.7156 398.828L50.7156 399.828ZM59.2028 398.55L59.5352 399.493C62.158 398.569 64.2828 397.188 65.8607 395.326L65.0977 394.679L64.3347 394.033C63.0244 395.579 61.2193 396.779 58.8705 397.607L59.2028 398.55ZM65.0977 394.679L65.8703 395.314C67.4572 393.383 68.2284 391.019 68.2284 388.287L67.2284 388.287L66.2284 388.287C66.2284 390.621 65.5792 392.519 64.3252 394.044L65.0977 394.679ZM5.15454 336.547L5.15454 335.547L4.15454 335.547L4.15454 336.547L5.15454 336.547ZM77.8818 336.547L78.8818 336.547L78.8818 335.547L77.8818 335.547L77.8818 336.547ZM77.8818 351.675L77.8818 352.675L78.8818 352.675L78.8818 351.675L77.8818 351.675ZM5.15454 351.675L4.15454 351.675L4.15454 352.675L5.15454 352.675L5.15454 351.675ZM5.15454 336.547L5.15454 337.547L77.8818 337.547L77.8818 336.547L77.8818 335.547L5.15454 335.547L5.15454 336.547ZM77.8818 336.547L76.8818 336.547L76.8818 351.675L77.8818 351.675L78.8818 351.675L78.8818 336.547L77.8818 336.547ZM77.8818 351.675L77.8818 350.675L5.15454 350.675L5.15454 351.675L5.15454 352.675L77.8818 352.675L77.8818 351.675ZM5.15454 351.675L6.15454 351.675L6.15454 336.547L5.15454 336.547L4.15454 336.547L4.15454 351.675L5.15454 351.675ZM5.15454 309.301L5.15454 308.301L4.15454 308.301L4.15454 309.301L5.15454 309.301ZM77.8818 309.301L78.8818 309.301L78.8818 308.301L77.8818 308.301L77.8818 309.301ZM77.8818 324.429L77.8818 325.429L78.8818 325.429L78.8818 324.429L77.8818 324.429ZM5.15454 324.429L4.15454 324.429L4.15454 325.429L5.15454 325.429L5.15454 324.429ZM5.15454 309.301L5.15454 310.301L77.8818 310.301L77.8818 309.301L77.8818 308.301L5.15454 308.301L5.15454 309.301ZM77.8818 309.301L76.8818 309.301L76.8818 324.429L77.8818 324.429L78.8818 324.429L78.8818 309.301L77.8818 309.301ZM77.8818 324.429L77.8818 323.429L5.15454 323.429L5.15454 324.429L5.15454 325.429L77.8818 325.429L77.8818 324.429ZM5.15454 324.429L6.15454 324.429L6.15454 309.301L5.15454 309.301L4.15454 309.301L4.15454 324.429L5.15454 324.429ZM75.5381 286.813L76.4066 287.309L76.4101 287.303L75.5381 286.813ZM65.8079 296.117L66.2671 297.006L66.2691 297.005L65.8079 296.117ZM36.0849 296.117L35.6278 297.007L36.0849 296.117ZM26.1773 286.92L25.318 287.431L25.3193 287.434L26.1773 286.92ZM24.3662 262.879L25.3029 263.229L25.306 263.221L24.3662 262.879ZM29.5153 254.711L30.2261 255.415L30.2296 255.411L29.5153 254.711ZM38.1801 249.242L38.5305 250.179L38.5326 250.178L38.1801 249.242ZM54.4798 247.289L55.4798 247.289L55.4798 246.289L54.4798 246.289L54.4798 247.289ZM54.4798 293.348L54.4798 294.348L55.4798 294.348L55.4798 293.348L54.4798 293.348ZM45.1048 293.348L44.1048 293.348L44.1048 294.348L45.1048 294.348L45.1048 293.348ZM45.1048 261.529L46.1048 261.529L46.1048 260.529L45.1048 260.529L45.1048 261.529ZM39.3165 262.95L39.8073 263.821L39.3165 262.95ZM35.3747 266.892L36.2376 267.397L36.2418 267.39L36.246 267.382L35.3747 266.892ZM35.5168 278.788L36.3763 278.277L36.3743 278.273L35.5168 278.788ZM39.7426 282.907L40.2362 282.038L40.2312 282.035L39.7426 282.907ZM45.602 284.434L45.591 285.434L45.602 285.434L45.602 284.434ZM61.5111 282.943L61.9626 283.835L61.9711 283.831L61.5111 282.943ZM66.9443 267.46L65.9972 267.781L66.9443 267.46ZM64.8136 263.873L64.0895 264.563L64.8136 263.873ZM61.3335 261.6L60.3357 261.535L60.287 262.273L60.9789 262.535L61.3335 261.6ZM62.2568 247.609L62.4635 246.631L61.3349 246.392L61.259 247.543L62.2568 247.609ZM71.0636 251.977L70.4041 252.729L70.4046 252.729L71.0636 251.977ZM76.8875 260.429L77.816 260.057L77.8147 260.054L76.8875 260.429ZM78.9472 272.325L77.9472 272.325C77.9472 277.8 76.839 282.453 74.6661 286.324L75.5381 286.813L76.4101 287.303C78.7826 283.077 79.9472 278.071 79.9472 272.325L78.9472 272.325ZM75.5381 286.813L74.6695 286.318C72.4703 290.172 69.3699 293.139 65.3468 295.23L65.8079 296.117L66.2691 297.005C70.6266 294.74 74.013 291.504 76.4066 287.309L75.5381 286.813ZM65.8079 296.117L65.3488 295.229C61.3038 297.32 56.4843 298.384 50.8577 298.384L50.8577 299.384L50.8577 300.384C56.7367 300.384 61.884 299.271 66.2671 297.006L65.8079 296.117ZM50.8577 299.384L50.8577 298.384C45.3777 298.384 40.6153 297.322 36.5421 295.228L36.0849 296.117L35.6278 297.007C40.03 299.269 45.116 300.384 50.8577 300.384L50.8577 299.384ZM36.0849 296.117L36.5421 295.228C32.4645 293.132 29.3034 290.194 27.0352 286.406L26.1773 286.92L25.3193 287.434C27.786 291.553 31.23 294.747 35.6278 297.007L36.0849 296.117ZM26.1773 286.92L27.0366 286.409C24.7748 282.609 23.6261 278.127 23.6261 272.929L22.6261 272.929L21.6261 272.929C21.6261 278.43 22.8449 283.277 25.318 287.431L26.1773 286.92ZM22.6261 272.929L23.6261 272.929C23.6261 269.439 24.1882 266.209 25.3028 263.229L24.3662 262.879L23.4296 262.528C22.2241 265.751 21.6261 269.221 21.6261 272.929L22.6261 272.929ZM24.3662 262.879L25.306 263.221C26.3939 260.229 28.0332 257.63 30.2261 255.415L29.5153 254.711L28.8046 254.008C26.4047 256.432 24.6112 259.279 23.4264 262.537L24.3662 262.879ZM29.5153 254.711L30.2296 255.411C32.4107 253.185 35.1694 251.437 38.5305 250.179L38.1801 249.242L37.8297 248.306C34.2306 249.652 31.2127 251.55 28.8011 254.011L29.5153 254.711ZM38.1801 249.242L38.5326 250.178C41.8516 248.928 45.7756 248.289 50.325 248.289L50.325 247.289L50.325 246.289C45.594 246.289 41.4214 246.953 37.8276 248.307L38.1801 249.242ZM50.325 247.289L50.325 248.289L54.4798 248.289L54.4798 247.289L54.4798 246.289L50.325 246.289L50.325 247.289ZM54.4798 247.289L53.4798 247.289L53.4798 293.348L54.4798 293.348L55.4798 293.348L55.4798 247.289L54.4798 247.289ZM54.4798 293.348L54.4798 292.348L45.1048 292.348L45.1048 293.348L45.1048 294.348L54.4798 294.348L54.4798 293.348ZM45.1048 293.348L46.1048 293.348L46.1048 261.529L45.1048 261.529L44.1048 261.529L44.1048 293.348L45.1048 293.348ZM45.1048 261.529L45.1048 260.529C42.7774 260.529 40.6748 261.037 38.8256 262.079L39.3165 262.95L39.8073 263.821C41.3199 262.969 43.0762 262.529 45.1048 262.529L45.1048 261.529ZM39.3165 262.95L38.8256 262.079C36.9856 263.115 35.5401 264.561 34.5035 266.401L35.3747 266.892L36.246 267.382C37.1033 265.861 38.2856 264.678 39.8073 263.821L39.3165 262.95ZM35.3747 266.892L34.5118 266.386C33.4389 268.218 32.9187 270.327 32.9187 272.68L33.9187 272.68L34.9187 272.68C34.9187 270.629 35.3692 268.88 36.2376 267.397L35.3747 266.892ZM33.9187 272.68L32.9187 272.68C32.9187 275.137 33.4907 277.355 34.6593 279.302L35.5168 278.788L36.3743 278.273C35.4121 276.67 34.9187 274.815 34.9187 272.68L33.9187 272.68ZM35.5168 278.788L34.6572 279.299C35.7885 281.202 37.325 282.699 39.254 283.78L39.7426 282.907L40.2312 282.035C38.6091 281.126 37.3283 279.878 36.3763 278.277L35.5168 278.788ZM39.7426 282.907L39.249 283.777C41.1584 284.861 43.2795 285.409 45.591 285.434L45.602 284.434L45.613 283.434C43.6158 283.412 41.8306 282.942 40.2362 282.038L39.7426 282.907ZM45.602 284.434L45.602 285.434L54.5153 285.434L54.5153 284.434L54.5153 283.434L45.602 283.434L45.602 284.434ZM54.5153 284.434L54.5153 285.434C57.3363 285.434 59.8296 284.914 61.9626 283.835L61.5111 282.943L61.0596 282.05C59.2626 282.96 57.0921 283.434 54.5153 283.434L54.5153 284.434ZM61.5111 282.943L61.9711 283.831C64.0989 282.728 65.7581 281.164 66.9227 279.146L66.0565 278.646L65.1903 278.146C64.2243 279.821 62.8531 281.121 61.0511 282.055L61.5111 282.943ZM66.0565 278.646L66.9227 279.146C68.0909 277.121 68.6545 274.752 68.6545 272.076L67.6545 272.076L66.6545 272.076C66.6545 274.467 66.1528 276.478 65.1903 278.146L66.0565 278.646ZM67.6545 272.076L68.6545 272.076C68.6545 270.301 68.4044 268.652 67.8914 267.139L66.9443 267.46L65.9972 267.781C66.4312 269.061 66.6545 270.49 66.6545 272.076L67.6545 272.076ZM66.9443 267.46L67.8914 267.139C67.3748 265.615 66.5922 264.291 65.5378 263.183L64.8136 263.873L64.0895 264.563C64.929 265.444 65.5669 266.511 65.9972 267.781L66.9443 267.46ZM64.8136 263.873L65.5378 263.183C64.4805 262.073 63.1913 261.236 61.6882 260.665L61.3335 261.6L60.9789 262.535C62.2219 263.007 63.2529 263.684 64.0895 264.563L64.8136 263.873ZM61.3335 261.6L62.3313 261.666L63.2546 247.675L62.2568 247.609L61.259 247.543L60.3357 261.535L61.3335 261.6ZM62.2568 247.609L62.0501 248.587C65.2491 249.263 68.0275 250.643 70.4041 252.729L71.0636 251.977L71.7231 251.225C69.0808 248.907 65.988 247.375 62.4635 246.631L62.2568 247.609ZM71.0636 251.977L70.4046 252.729C72.7584 254.791 74.6146 257.473 75.9603 260.803L76.8875 260.429L77.8147 260.054C76.3668 256.471 74.3404 253.518 71.7226 251.225L71.0636 251.977ZM76.8875 260.429L75.959 260.8C77.2759 264.092 77.9472 267.927 77.9472 272.325L78.9472 272.325L79.9472 272.325C79.9472 267.726 79.2454 263.631 77.816 260.057L76.8875 260.429ZM75.396 227.19L76.2544 227.703L76.258 227.697L75.396 227.19ZM65.4528 236.423L65.902 237.316L65.906 237.314L65.4528 236.423ZM36.1205 236.387L35.6633 237.277L35.6652 237.278L36.1205 236.387ZM26.2128 227.119L27.0734 226.61L27.0712 226.606L26.2128 227.119ZM25.2185 200.343L24.3181 199.908L25.2185 200.343ZM32.4983 191.856L33.053 192.688L32.4983 191.856ZM43.5068 188.411L44.5068 188.411L44.5068 187.36L43.4563 187.413L43.5068 188.411ZM43.5068 202.687L43.6531 203.676L44.5068 203.55L44.5068 202.687L43.5068 202.687ZM36.9372 205.883L37.6493 206.585L37.659 206.575L36.9372 205.883ZM36.3335 218.738L37.1427 218.151L37.1413 218.149L36.3335 218.738ZM59.4869 222.822L59.8489 223.754L59.8568 223.751L59.4869 222.822ZM65.0622 218.738L64.2544 218.149L65.0622 218.738ZM65.9145 207.943L65.0231 208.396L65.0263 208.402L65.9145 207.943ZM62.825 204.498L62.267 205.328L62.2703 205.33L62.825 204.498ZM57.8889 202.687L56.8889 202.687L56.8889 203.55L57.7424 203.676L57.8889 202.687ZM57.8889 188.411L57.9456 187.413L56.8889 187.353L56.8889 188.411L57.8889 188.411ZM68.8974 191.821L68.3573 192.662L68.3589 192.663L68.8974 191.821ZM76.2838 200.166L75.3894 200.613L76.2838 200.166ZM78.9472 212.772L77.9472 212.772C77.9472 218.216 76.7948 222.84 74.5341 226.683L75.396 227.19L76.258 227.697C78.7321 223.491 79.9472 218.502 79.9472 212.772L78.9472 212.772ZM75.396 227.19L74.5376 226.677C72.2452 230.513 69.0728 233.461 64.9997 235.531L65.4528 236.423L65.906 237.314C70.3082 235.076 73.7646 231.869 76.2544 227.703L75.396 227.19ZM65.4528 236.423L65.0036 235.529C60.9264 237.579 56.2077 238.619 50.8222 238.619L50.8222 239.619L50.8222 240.619C56.4688 240.619 61.5039 239.528 65.902 237.316L65.4528 236.423ZM50.8222 239.619L50.8222 238.619C45.3648 238.619 40.6254 237.567 36.5756 235.497L36.1205 236.387L35.6652 237.278C40.0435 239.516 45.1052 240.619 50.8222 240.619L50.8222 239.619ZM36.1205 236.387L36.5776 235.498C32.5031 233.404 29.3423 230.444 27.0734 226.61L26.2128 227.119L25.3522 227.628C27.8181 231.795 31.2624 235.015 35.6633 237.277L36.1205 236.387ZM26.2128 227.119L27.0712 226.606C24.7885 222.786 23.6261 218.212 23.6261 212.843L22.6261 212.843L21.6261 212.843C21.6261 218.507 22.8549 223.449 25.3544 227.632L26.2128 227.119ZM22.6261 212.843L23.6261 212.843C23.6261 208.206 24.4679 204.193 26.1188 200.779L25.2185 200.343L24.3181 199.908C22.5126 203.643 21.6261 207.964 21.6261 212.843L22.6261 212.843ZM25.2185 200.343L26.1188 200.779C27.7739 197.355 30.0851 194.667 33.053 192.688L32.4983 191.856L31.9436 191.024C28.6614 193.212 26.1195 196.182 24.3181 199.908L25.2185 200.343ZM32.4983 191.856L33.053 192.688C36.0101 190.717 39.5006 189.615 43.5573 189.41L43.5068 188.411L43.4563 187.413C39.085 187.634 35.2364 188.829 31.9436 191.024L32.4983 191.856ZM43.5068 188.411L42.5068 188.411L42.5068 202.687L43.5068 202.687L44.5068 202.687L44.5068 188.411L43.5068 188.411ZM43.5068 202.687L43.3606 201.698C40.4528 202.128 38.0486 203.279 36.2154 205.191L36.9372 205.883L37.659 206.575C39.1402 205.031 41.1157 204.051 43.6531 203.676L43.5068 202.687ZM36.9372 205.883L36.2252 205.181C34.3307 207.102 33.4159 209.607 33.4159 212.595L34.4159 212.595L35.4159 212.595C35.4159 210.043 36.182 208.073 37.6492 206.585L36.9372 205.883ZM34.4159 212.595L33.4159 212.595C33.4159 215.132 34.1122 217.391 35.5257 219.328L36.3335 218.738L37.1413 218.149C35.9981 216.582 35.4159 214.745 35.4159 212.595L34.4159 212.595ZM36.3335 218.738L35.5243 219.326C36.9115 221.236 38.9138 222.689 41.4648 223.714L41.8378 222.786L42.2107 221.859C39.9322 220.943 38.265 219.696 37.1427 218.151L36.3335 218.738ZM41.8378 222.786L41.4648 223.714C44.0294 224.745 47.0871 225.242 50.6091 225.242L50.6091 224.242L50.6091 223.242C47.2655 223.242 44.4757 222.769 42.2107 221.859L41.8378 222.786ZM50.6091 224.242L50.6091 225.242C54.1745 225.242 57.2639 224.758 59.8489 223.754L59.4869 222.822L59.1249 221.89C56.8331 222.78 54.0039 223.242 50.6091 223.242L50.6091 224.242ZM59.4869 222.822L59.8568 223.751C62.4333 222.726 64.4592 221.261 65.87 219.328L65.0622 218.738L64.2544 218.149C63.1084 219.719 61.4175 220.977 59.1171 221.893L59.4869 222.822ZM65.0622 218.738L65.87 219.328C67.2836 217.391 67.9798 215.132 67.9798 212.595L66.9798 212.595L65.9798 212.595C65.9798 214.745 65.3977 216.582 64.2544 218.149L65.0622 218.738ZM66.9798 212.595L67.9798 212.595C67.9798 210.726 67.5947 209.014 66.8027 207.483L65.9145 207.943L65.0263 208.402C65.6547 209.617 65.9798 211.007 65.9798 212.595L66.9798 212.595ZM65.9145 207.943L66.8059 207.489C66.015 205.934 64.8668 204.657 63.3797 203.666L62.825 204.498L62.2703 205.33C63.482 206.138 64.3935 207.158 65.0231 208.396L65.9145 207.943ZM62.825 204.498L63.383 203.668C61.8668 202.649 60.0753 202 58.0355 201.698L57.8889 202.687L57.7424 203.676C59.5378 203.942 61.0369 204.501 62.267 205.328L62.825 204.498ZM57.8889 202.687L58.8889 202.687L58.8889 188.411L57.8889 188.411L56.8889 188.411L56.8889 202.687L57.8889 202.687ZM57.8889 188.411L57.8322 189.41C61.8458 189.638 65.345 190.729 68.3573 192.662L68.8974 191.821L69.4376 190.979C66.1052 188.84 62.2654 187.659 57.9456 187.413L57.8889 188.411ZM68.8974 191.821L68.3589 192.663C71.3458 194.572 73.6893 197.213 75.3894 200.613L76.2838 200.166L77.1782 199.719C75.3271 196.016 72.7464 193.094 69.436 190.978L68.8974 191.821ZM76.2838 200.166L75.3894 200.613C77.0818 203.998 77.9472 208.04 77.9472 212.772L78.9472 212.772L79.9472 212.772C79.9472 207.798 79.037 203.436 77.1782 199.719L76.2838 200.166ZM23.3364 149.713L23.3364 148.713L22.3364 148.713L22.3364 149.713L23.3364 149.713ZM34.7 149.713L35.7 149.713L35.7 148.713L34.7 148.713L34.7 149.713ZM34.7 182.561L34.7 183.561L35.7 183.561L35.7 182.561L34.7 182.561ZM23.3364 182.561L22.3364 182.561L22.3364 183.561L23.3364 183.561L23.3364 182.561ZM10.2682 175.104L9.26818 175.104L9.26818 176.104L10.2682 176.104L10.2682 175.104ZM10.2682 159.976L10.2682 158.976L9.26817 158.976L9.26817 159.976L10.2682 159.976ZM64.3875 159.337L64.8664 160.215L64.8778 160.208L64.3875 159.337ZM65.9855 157.561L66.912 157.937L66.9159 157.927L65.9855 157.561ZM66.2696 152.731L67.256 152.567L67.2533 152.551L67.2502 152.535L66.2696 152.731ZM65.95 151.098L65.7432 150.12L64.787 150.322L64.9671 151.282L65.95 151.098ZM77.2071 148.719L78.1616 148.42L77.8903 147.552L77.0003 147.74L77.2071 148.719ZM78.0239 151.915L77.0481 152.133L77.0499 152.141L77.0518 152.149L78.0239 151.915ZM78.6275 156.922L77.6282 156.958L77.6283 156.961L78.6275 156.922ZM77.1716 166.51L78.0973 166.888L78.0984 166.885L77.1716 166.51ZM71.9869 172.866L71.444 172.027L71.9869 172.866ZM63.1091 175.104L63.1157 174.104L63.1091 174.104L63.1091 175.104ZM23.3364 149.713L23.3364 150.713L34.7 150.713L34.7 149.713L34.7 148.713L23.3364 148.713L23.3364 149.713ZM34.7 149.713L33.7 149.713L33.7 182.561L34.7 182.561L35.7 182.561L35.7 149.713L34.7 149.713ZM34.7 182.561L34.7 181.561L23.3364 181.561L23.3364 182.561L23.3364 183.561L34.7 183.561L34.7 182.561ZM23.3364 182.561L24.3364 182.561L24.3364 149.713L23.3364 149.713L22.3364 149.713L22.3364 182.561L23.3364 182.561ZM10.2682 175.104L11.2682 175.104L11.2682 159.976L10.2682 159.976L9.26817 159.976L9.26818 175.104L10.2682 175.104ZM10.2682 159.976L10.2682 160.976L61.1204 160.976L61.1204 159.976L61.1204 158.976L10.2682 158.976L10.2682 159.976ZM61.1204 159.976L61.1204 160.976C62.5983 160.976 63.8776 160.754 64.8663 160.214L64.3875 159.337L63.9086 158.459C63.3349 158.772 62.4362 158.976 61.1204 158.976L61.1204 159.976ZM64.3875 159.337L64.8778 160.208C65.8192 159.679 66.5134 158.918 66.912 157.937L65.9855 157.561L65.059 157.185C64.842 157.719 64.4709 158.142 63.8972 158.465L64.3875 159.337ZM65.9855 157.561L66.9159 157.927C67.2783 157.008 67.4471 155.98 67.4471 154.862L66.4471 154.862L65.4471 154.862C65.4471 155.781 65.3082 156.552 65.0551 157.194L65.9855 157.561ZM66.4471 154.862L67.4471 154.862C67.4471 154.096 67.3833 153.331 67.256 152.567L66.2696 152.731L65.2832 152.896C65.3926 153.552 65.4471 154.208 65.4471 154.862L66.4471 154.862ZM66.2696 152.731L67.2502 152.535C67.1084 151.826 67.0028 151.286 66.9329 150.914L65.95 151.098L64.9671 151.282C65.0393 151.667 65.1467 152.216 65.289 152.928L66.2696 152.731ZM65.95 151.098L66.1568 152.076L77.4139 149.697L77.2071 148.719L77.0003 147.74L65.7432 150.12L65.95 151.098ZM77.2071 148.719L76.2526 149.017C76.4772 149.736 76.7425 150.77 77.0481 152.133L78.0239 151.915L78.9996 151.696C78.6897 150.313 78.4104 149.217 78.1616 148.42L77.2071 148.719ZM78.0239 151.915L77.0518 152.149C77.3627 153.438 77.5587 155.036 77.6282 156.958L78.6275 156.922L79.6269 156.886C79.5543 154.878 79.3479 153.138 78.9959 151.68L78.0239 151.915ZM78.6275 156.922L77.6283 156.961C77.7661 160.497 77.2934 163.546 76.2448 166.134L77.1716 166.51L78.0984 166.885C79.2752 163.981 79.7731 160.638 79.6268 156.883L78.6275 156.922ZM77.1716 166.51L76.2459 166.132C75.2062 168.676 73.6064 170.629 71.444 172.027L71.9869 172.866L72.5298 173.706C75.0549 172.074 76.9116 169.789 78.0973 166.888L77.1716 166.51ZM71.9869 172.866L71.444 172.027C69.3042 173.41 66.55 174.126 63.1157 174.104L63.1091 175.104L63.1025 176.104C66.8178 176.128 69.9821 175.353 72.5298 173.706L71.9869 172.866ZM63.1091 175.104L63.1091 174.104L10.2682 174.104L10.2682 175.104L10.2682 176.104L63.1091 176.104L63.1091 175.104ZM77.8818 139.859L77.8818 140.859L78.8818 140.859L78.8818 139.859L77.8818 139.859ZM23.3364 139.859L22.3364 139.859L22.3364 140.859L23.3364 140.859L23.3364 139.859ZM23.3364 124.731L23.3364 123.731L22.3364 123.731L22.3364 124.731L23.3364 124.731ZM77.8818 124.731L78.8818 124.731L78.8818 123.731L77.8818 123.731L77.8818 124.731ZM14.0679 138.047L14.791 138.738L14.7963 138.733L14.8014 138.727L14.0679 138.047ZM3.27243 138.047L4.00095 137.362L4.00063 137.362L3.27243 138.047ZM3.27243 126.506L3.99554 127.197L4.00081 127.192L4.006 127.186L3.27243 126.506ZM14.0679 126.506L14.7964 125.821L14.7961 125.821L14.0679 126.506ZM77.8818 139.859L77.8818 138.859L23.3364 138.859L23.3364 139.859L23.3364 140.859L77.8818 140.859L77.8818 139.859ZM23.3364 139.859L24.3364 139.859L24.3364 124.731L23.3364 124.731L22.3364 124.731L22.3364 139.859L23.3364 139.859ZM23.3364 124.731L23.3364 125.731L77.8818 125.731L77.8818 124.731L77.8818 123.731L23.3364 123.731L23.3364 124.731ZM77.8818 124.731L76.8818 124.731L76.8818 139.859L77.8818 139.859L78.8818 139.859L78.8818 124.731L77.8818 124.731ZM16.3051 132.259L15.3051 132.259C15.3051 134.263 14.6499 135.948 13.3343 137.368L14.0679 138.047L14.8014 138.727C16.4689 136.927 17.3051 134.753 17.3051 132.259L16.3051 132.259ZM14.0679 138.047L13.3448 137.357C12.0096 138.755 10.4561 139.427 8.63465 139.427L8.63465 140.427L8.63465 141.427C11.0272 141.427 13.0959 140.513 14.791 138.738L14.0679 138.047ZM8.63465 140.427L8.63465 139.427C6.8409 139.427 5.31303 138.758 4.00095 137.362L3.27243 138.047L2.54392 138.733C4.21479 140.51 6.26173 141.427 8.63465 141.427L8.63465 140.427ZM3.27243 138.047L4.00063 137.362C2.6634 135.941 1.9997 134.258 1.9997 132.259L0.999703 132.259L-0.000297205 132.259C-0.000297096 134.758 0.851159 136.934 2.54424 138.733L3.27243 138.047ZM0.999703 132.259L1.9997 132.259C1.9997 130.26 2.66305 128.592 3.99554 127.197L3.27243 126.506L2.54932 125.816C0.851513 127.593 -0.000297315 129.76 -0.000297205 132.259L0.999703 132.259ZM3.27243 126.506L4.006 127.186C5.3196 125.768 6.84608 125.092 8.63465 125.092L8.63465 124.092L8.63465 123.092C6.25655 123.092 4.20822 124.025 2.53887 125.827L3.27243 126.506ZM8.63465 124.092L8.63465 125.092C10.451 125.092 12.0031 125.771 13.3397 127.192L14.0679 126.506L14.7961 125.821C13.1024 124.021 11.0323 123.092 8.63465 123.092L8.63465 124.092ZM14.0679 126.506L13.3394 127.191C14.6502 128.585 15.3051 130.255 15.3051 132.259L16.3051 132.259L17.3051 132.259C17.3051 129.765 16.4685 127.6 14.7964 125.821L14.0679 126.506ZM75.4315 102.279L76.2922 102.788L76.2957 102.782L75.4315 102.279ZM65.5594 111.547L66.0165 112.437L66.0185 112.435L65.5594 111.547ZM36.0494 111.547L36.5086 110.659L36.5065 110.658L36.0494 111.547ZM26.1773 102.279L27.0401 101.773L27.0392 101.772L26.1773 102.279ZM26.1773 73.692L27.0379 74.2013L27.0414 74.1952L26.1773 73.692ZM36.0494 64.3881L36.5065 65.2775L36.5086 65.2764L36.0494 64.3881ZM65.5594 64.3881L66.0185 63.4997L66.0165 63.4987L65.5594 64.3881ZM75.4315 73.692L76.2944 73.1866L76.2935 73.185L75.4315 73.692ZM65.0977 81.6111L65.8615 80.9656L65.8562 80.9594L65.0977 81.6111ZM59.2028 77.8113L58.8705 78.7545L58.8785 78.7573L59.2028 77.8113ZM42.2284 77.8113L42.5527 78.7573L42.5607 78.7545L42.2284 77.8113ZM36.3335 94.2886L35.5661 94.9299L35.5705 94.9351L36.3335 94.2886ZM42.2284 98.1594L41.896 99.1025L41.9041 99.1053L42.2284 98.1594ZM59.2028 98.1594L59.5272 99.1053L59.5352 99.1025L59.2028 98.1594ZM65.0977 94.2886L65.8607 94.9351L65.8655 94.9293L65.8703 94.9236L65.0977 94.2886ZM78.9471 87.9676L77.9471 87.9676C77.9471 93.3397 76.807 97.9296 74.5674 101.775L75.4315 102.279L76.2957 102.782C78.7436 98.5785 79.9471 93.6277 79.9471 87.9676L78.9471 87.9676ZM75.4315 102.279L74.5709 101.769C72.3011 105.605 69.1511 108.565 65.1002 110.659L65.5594 111.547L66.0185 112.435C70.3957 110.173 73.8271 106.954 76.2921 102.788L75.4315 102.279ZM65.5594 111.547L65.1022 110.658C61.0285 112.752 56.2777 113.814 50.8221 113.814L50.8221 114.814L50.8221 115.814C56.5409 115.814 61.6149 114.699 66.0165 112.437L65.5594 111.547ZM50.8221 114.814L50.8221 113.814C45.3176 113.814 40.5563 112.751 36.5086 110.659L36.0494 111.547L35.5903 112.435C39.9706 114.699 45.0578 115.814 50.8221 115.814L50.8221 114.814ZM36.0494 111.547L36.5065 110.658C32.4329 108.564 29.2851 105.606 27.0401 101.773L26.1773 102.279L25.3144 102.784C27.7569 106.954 31.1906 110.174 35.5923 112.437L36.0494 111.547ZM26.1773 102.279L27.0392 101.772C24.7774 97.9266 23.6261 93.3379 23.6261 87.9676L22.6261 87.9676L21.6261 87.9676C21.6261 93.6294 22.8423 98.5815 25.3153 102.786L26.1773 102.279ZM22.6261 87.9676L23.6261 87.9676C23.6261 82.597 24.7774 78.0214 27.0379 74.2013L26.1773 73.692L25.3166 73.1828C22.8422 77.3645 21.6261 82.306 21.6261 87.9676L22.6261 87.9676ZM26.1773 73.692L27.0414 74.1952C29.2868 70.3395 32.4345 67.3704 36.5065 65.2775L36.0494 64.3881L35.5923 63.4987C31.189 65.7618 27.7552 68.9952 25.3131 73.1888L26.1773 73.692ZM36.0494 64.3881L36.5086 65.2764C40.5563 63.1843 45.3176 62.121 50.8221 62.121L50.8221 61.121L50.8221 60.121C45.0578 60.121 39.9706 61.2357 35.5903 63.4997L36.0494 64.3881ZM50.8221 61.121L50.8221 62.121C56.2777 62.121 61.0285 63.1837 65.1022 65.2775L65.5594 64.3881L66.0165 63.4987C61.6149 61.2364 56.5409 60.121 50.8221 60.121L50.8221 61.121ZM65.5594 64.3881L65.1002 65.2764C69.1495 67.3693 72.2994 70.3397 74.5696 74.199L75.4315 73.692L76.2935 73.185C73.8288 68.9951 70.3972 65.7629 66.0185 63.4997L65.5594 64.3881ZM75.4315 73.692L74.5687 74.1975C76.8069 78.0183 77.9471 82.5953 77.9471 87.9676L78.9471 87.9676L79.9471 87.9676C79.9471 82.3077 78.7436 77.3676 76.2944 73.1866L75.4315 73.692ZM67.2284 87.8965L68.2284 87.8965C68.2284 85.186 67.4558 82.8521 65.8615 80.9656L65.0977 81.6111L64.3339 82.2565C65.5806 83.7317 66.2284 85.5883 66.2284 87.8965L67.2284 87.8965ZM65.0977 81.6111L65.8562 80.9594C64.2762 79.1204 62.1498 77.7646 59.5272 76.8654L59.2028 77.8113L58.8785 78.7573C61.2274 79.5626 63.031 80.74 64.3392 82.2628L65.0977 81.6111ZM59.2028 77.8113L59.5352 76.8682C56.9234 75.9478 53.9788 75.4974 50.7156 75.4974L50.7156 76.4974L50.7156 77.4974C53.7971 77.4974 56.5107 77.923 58.8705 78.7545L59.2028 77.8113ZM50.7156 76.4974L50.7156 75.4974C47.4524 75.4974 44.5078 75.9478 41.896 76.8682L42.2284 77.8113L42.5607 78.7545C44.9205 77.923 47.6341 77.4974 50.7156 77.4974L50.7156 76.4974ZM42.2284 77.8113L41.9041 76.8654C39.2814 77.7646 37.155 79.1204 35.575 80.9594L36.3335 81.6111L37.092 82.2628C38.4003 80.74 40.2038 79.5626 42.5527 78.7573L42.2284 77.8113ZM36.3335 81.6111L35.575 80.9594C33.9544 82.8456 33.1673 85.1817 33.1673 87.8965L34.1673 87.8965L35.1673 87.8965C35.1673 85.5925 35.8244 83.7382 37.092 82.2628L36.3335 81.6111ZM34.1673 87.8965L33.1673 87.8965C33.1673 90.633 33.9529 92.9993 35.5662 94.9298L36.3335 94.2886L37.1009 93.6474C35.8258 92.1215 35.1673 90.2264 35.1673 87.8965L34.1673 87.8965ZM36.3335 94.2886L35.5705 94.9351C37.1485 96.7975 39.2732 98.1783 41.8961 99.1025L42.2284 98.1594L42.5607 97.2162C40.212 96.3885 38.4068 95.1888 37.0965 93.6422L36.3335 94.2886ZM42.2284 98.1594L41.9041 99.1053C44.5133 99.9999 47.4551 100.438 50.7156 100.438L50.7156 99.4377L50.7156 98.4377C47.6315 98.4377 44.9151 98.0234 42.5527 97.2134L42.2284 98.1594ZM50.7156 99.4377L50.7156 100.438C53.9762 100.438 56.9179 99.9999 59.5272 99.1053L59.2028 98.1594L58.8785 97.2134C56.5162 98.0234 53.7998 98.4377 50.7156 98.4377L50.7156 99.4377ZM59.2028 98.1594L59.5352 99.1025C62.158 98.1783 64.2828 96.7975 65.8607 94.9351L65.0977 94.2886L64.3347 93.6422C63.0244 95.1888 61.2192 96.3885 58.8705 97.2162L59.2028 98.1594ZM65.0977 94.2886L65.8703 94.9236C67.4571 92.9929 68.2284 90.6288 68.2284 87.8965L67.2284 87.8965L66.2284 87.8965C66.2284 90.2306 65.5792 92.1279 64.3252 93.6536L65.0977 94.2886ZM46.3477 36.1565L46.3376 37.1565L46.3477 37.1565L46.3477 36.1565ZM77.8818 36.1565L78.8818 36.1565L78.8818 35.1565L77.8818 35.1565L77.8818 36.1565ZM77.8818 51.2844L77.8818 52.2844L78.8818 52.2844L78.8818 51.2844L77.8818 51.2844ZM23.3364 51.2844L22.3364 51.2844L22.3364 52.2844L23.3364 52.2844L23.3364 51.2844ZM23.3363 36.8668L23.3363 35.8668L22.3363 35.8668L22.3363 36.8668L23.3363 36.8668ZM32.9599 36.8668L32.9599 37.8668L33.9599 37.8668L33.9599 36.8668L32.9599 36.8668ZM32.9599 36.2275L33.9599 36.2275L33.9599 35.5381L33.3156 35.293L32.9599 36.2275ZM25.4315 30.1551L26.27 29.6101L26.2668 29.6052L25.4315 30.1551ZM25.1119 9.91363L24.25 9.40661L25.1119 9.91363ZM32.2142 3.34399L32.6669 4.23565L32.6697 4.23425L32.2142 3.34399ZM77.8818 1.00024L78.8818 1.00024L78.8818 0.000239638L77.8818 0.000239682L77.8818 1.00024ZM77.8818 16.1281L77.8818 17.1281L78.8818 17.1281L78.8818 16.1281L77.8818 16.1281ZM45.8506 16.1281L45.8435 17.1281L45.8506 17.1281L45.8506 16.1281ZM38.0381 18.6849L38.7121 19.4236L38.7167 19.4194L38.0381 18.6849ZM36.5111 31.2205L35.6388 31.7095L35.642 31.7151L36.5111 31.2205ZM40.3463 34.8426L39.8841 35.7294L39.8889 35.7319L40.3463 34.8426ZM46.3477 36.1565L46.3477 37.1565L77.8818 37.1565L77.8818 36.1565L77.8818 35.1565L46.3477 35.1565L46.3477 36.1565ZM77.8818 36.1565L76.8818 36.1565L76.8818 51.2844L77.8818 51.2844L78.8818 51.2844L78.8818 36.1565L77.8818 36.1565ZM77.8818 51.2844L77.8818 50.2844L23.3364 50.2844L23.3364 51.2844L23.3364 52.2844L77.8818 52.2844L77.8818 51.2844ZM23.3364 51.2844L24.3364 51.2844L24.3363 36.8668L23.3363 36.8668L22.3363 36.8668L22.3364 51.2844L23.3364 51.2844ZM23.3363 36.8668L23.3363 37.8668L32.9599 37.8668L32.9599 36.8668L32.9599 35.8668L23.3363 35.8668L23.3363 36.8668ZM32.9599 36.8668L33.9599 36.8668L33.9599 36.2275L32.9599 36.2275L31.9599 36.2275L31.9599 36.8668L32.9599 36.8668ZM32.9599 36.2275L33.3156 35.293C30.341 34.1608 28.0008 32.2729 26.27 29.6101L25.4315 30.1551L24.5931 30.7001C26.5554 33.7191 29.2341 35.8795 32.6042 37.1621L32.9599 36.2275ZM25.4315 30.1551L26.2668 29.6052C24.523 26.9565 23.6261 23.7119 23.6261 19.8213L22.6261 19.8213L21.6261 19.8213C21.6261 24.0273 22.5995 27.6719 24.5963 30.705L25.4315 30.1551ZM22.6261 19.8213L23.6261 19.8213C23.6261 16.183 24.4206 13.0612 25.9739 10.4207L25.1119 9.91363L24.25 9.40661C22.4889 12.4005 21.6261 15.8838 21.6261 19.8213L22.6261 19.8213ZM25.1119 9.91363L25.9739 10.4207C27.5286 7.77746 29.7496 5.71679 32.6669 4.23565L32.2142 3.34399L31.7615 2.45233C28.5235 4.09625 26.0096 6.41528 24.25 9.40661L25.1119 9.91363ZM32.2142 3.34399L32.6697 4.23425C35.5533 2.75891 39.0358 2.00024 43.1517 2.00024L43.1517 1.00024L43.1517 0.0002412C38.7922 0.000241391 34.983 0.804136 31.7587 2.45379L32.2142 3.34399ZM43.1517 1.00024L43.1517 2.00024L77.8818 2.00024L77.8818 1.00024L77.8818 0.000239682L43.1517 0.0002412L43.1517 1.00024ZM77.8818 1.00024L76.8818 1.00024L76.8818 16.1281L77.8818 16.1281L78.8818 16.1281L78.8818 1.00024L77.8818 1.00024ZM77.8818 16.1281L77.8818 15.1281L45.8506 15.1281L45.8506 16.1281L45.8506 17.1281L77.8818 17.1281L77.8818 16.1281ZM45.8506 16.1281L45.8576 15.1281C42.3468 15.1032 39.4684 16.0016 37.3594 17.9505L38.0381 18.6849L38.7167 19.4194C40.3483 17.9117 42.6781 17.1056 45.8435 17.128L45.8506 16.1281ZM38.0381 18.6849L37.364 17.9462C35.2245 19.8986 34.1971 22.5671 34.1971 25.8227L35.1971 25.8227L36.1971 25.8227C36.1971 23.0177 37.0637 20.9277 38.7121 19.4236L38.0381 18.6849ZM35.1971 25.8227L34.1971 25.8227C34.1971 28.0062 34.6682 29.9781 35.6388 31.7094L36.5111 31.2205L37.3833 30.7314C36.602 29.3377 36.1971 27.7112 36.1971 25.8227L35.1971 25.8227ZM36.5111 31.2205L35.642 31.7151C36.6198 33.433 38.0453 34.7711 39.8842 35.7294L40.3463 34.8426L40.8084 33.9558C39.2855 33.1622 38.1542 32.0856 37.3801 30.7257L36.5111 31.2205ZM40.3463 34.8426L39.8889 35.7319C41.7156 36.6713 43.8773 37.1316 46.3376 37.1565L46.3477 36.1565L46.3578 35.1566C44.1306 35.1341 42.2914 34.7184 40.8036 33.9533L40.3463 34.8426Z" fill="black" mask="url(#path-1-outside-1_1_3006)"/>
</svg>
